<svg width="512" height="512" viewBox="0 0 512 512" fill="none" xmlns="http://www.w3.org/2000/svg">
<path d="M128 80V64C128.037 51.281 133.106 39.0934 142.1 30.0997C151.093 21.1059 163.281 16.0369 176 16H400C412.719 16.0369 424.907 21.1059 433.9 30.0997C442.894 39.0934 447.963 51.281 448 64V432L368 368" stroke="#1E90FF" stroke-width="32" stroke-linejoin="round"/>
<path d="M320 96H112C99.281 96.0369 87.0934 101.106 78.0997 110.1C69.1059 119.093 64.0369 131.281 64 144V496L216 368L368 496V144C367.963 131.281 362.894 119.093 353.9 110.1C344.907 101.106 332.719 96.0369 320 96V96Z" stroke="#1E90FF" stroke-width="32" stroke-linejoin="round"/>
</svg>
