<svg width="512" height="512" viewBox="0 0 512 512" fill="none" xmlns="http://www.w3.org/2000/svg">
<path d="M256 160V448M256 160C272 96.84 332.43 64.59 464 64C466.103 63.9921 468.188 64.4005 470.132 65.2018C472.077 66.003 473.844 67.1813 475.332 68.6686C476.819 70.1559 477.997 71.9229 478.798 73.8677C479.6 75.8125 480.008 77.8966 480 80V368C480 372.243 478.314 376.313 475.314 379.314C472.313 382.314 468.244 384 464 384C336 384 286.55 409.81 256 448C225.63 410 176 384 48.0001 384C38.1201 384 32.0001 375.95 32.0001 366.07V80C31.9922 77.8966 32.4006 75.8125 33.2019 73.8677C34.0031 71.9229 35.1814 70.1559 36.6687 68.6686C38.156 67.1813 39.923 66.003 41.8678 65.2018C43.8126 64.4005 45.8967 63.9921 48.0001 64C179.57 64.59 240 96.84 256 160Z" stroke="#1E90FF" stroke-width="32" stroke-linecap="round" stroke-linejoin="round"/>
</svg>
