<svg width="512" height="512" viewBox="0 0 512 512" fill="none" xmlns="http://www.w3.org/2000/svg">
<path d="M176 176V136C176 125.391 180.214 115.217 187.716 107.716C195.217 100.214 205.391 96 216 96H424C434.609 96 444.783 100.214 452.284 107.716C459.786 115.217 464 125.391 464 136V376C464 386.609 459.786 396.783 452.284 404.284C444.783 411.786 434.609 416 424 416H216C205.391 416 195.217 411.786 187.716 404.284C180.214 396.783 176 386.609 176 376V336" stroke="#1E90FF" stroke-width="32" stroke-linecap="round" stroke-linejoin="round"/>
<path d="M48 256H336M272 336L352 256L272 176V336Z" stroke="#1E90FF" stroke-width="32" stroke-linecap="round" stroke-linejoin="round"/>
</svg>
