<svg width="512" height="512" viewBox="0 0 512 512" fill="none" xmlns="http://www.w3.org/2000/svg">
<path d="M436 96H76C60.536 96 48 108.536 48 124V388C48 403.464 60.536 416 76 416H436C451.464 416 464 403.464 464 388V124C464 108.536 451.464 96 436 96Z" stroke="#1E90FF" stroke-width="32" stroke-linejoin="round"/>
<path d="M436 336H412C396.536 336 384 348.536 384 364V388C384 403.464 396.536 416 412 416H436C451.464 416 464 403.464 464 388V364C464 348.536 451.464 336 436 336Z" stroke="#1E90FF" stroke-width="32" stroke-linejoin="round"/>
<path d="M436 256H412C396.536 256 384 268.536 384 284V308C384 323.464 396.536 336 412 336H436C451.464 336 464 323.464 464 308V284C464 268.536 451.464 256 436 256Z" stroke="#1E90FF" stroke-width="32" stroke-linejoin="round"/>
<path d="M436 176H412C396.536 176 384 188.536 384 204V228C384 243.464 396.536 256 412 256H436C451.464 256 464 243.464 464 228V204C464 188.536 451.464 176 436 176Z" stroke="#1E90FF" stroke-width="32" stroke-linejoin="round"/>
<path d="M436 96H412C396.536 96 384 108.536 384 124V148C384 163.464 396.536 176 412 176H436C451.464 176 464 163.464 464 148V124C464 108.536 451.464 96 436 96Z" stroke="#1E90FF" stroke-width="32" stroke-linejoin="round"/>
<path d="M100 336H76C60.536 336 48 348.536 48 364V388C48 403.464 60.536 416 76 416H100C115.464 416 128 403.464 128 388V364C128 348.536 115.464 336 100 336Z" stroke="#1E90FF" stroke-width="32" stroke-linejoin="round"/>
<path d="M100 256H76C60.536 256 48 268.536 48 284V308C48 323.464 60.536 336 76 336H100C115.464 336 128 323.464 128 308V284C128 268.536 115.464 256 100 256Z" stroke="#1E90FF" stroke-width="32" stroke-linejoin="round"/>
<path d="M100 176H76C60.536 176 48 188.536 48 204V228C48 243.464 60.536 256 76 256H100C115.464 256 128 243.464 128 228V204C128 188.536 115.464 176 100 176Z" stroke="#1E90FF" stroke-width="32" stroke-linejoin="round"/>
<path d="M100 96H76C60.536 96 48 108.536 48 124V148C48 163.464 60.536 176 76 176H100C115.464 176 128 163.464 128 148V124C128 108.536 115.464 96 100 96Z" stroke="#1E90FF" stroke-width="32" stroke-linejoin="round"/>
<path d="M356 96H156C140.536 96 128 108.536 128 124V228C128 243.464 140.536 256 156 256H356C371.464 256 384 243.464 384 228V124C384 108.536 371.464 96 356 96Z" stroke="#1E90FF" stroke-width="32" stroke-linejoin="round"/>
<path d="M356 256H156C140.536 256 128 268.536 128 284V388C128 403.464 140.536 416 156 416H356C371.464 416 384 403.464 384 388V284C384 268.536 371.464 256 356 256Z" stroke="#1E90FF" stroke-width="32" stroke-linejoin="round"/>
</svg>
