<svg width="512" height="512" viewBox="0 0 512 512" fill="none" xmlns="http://www.w3.org/2000/svg">
<path d="M238.23 342.43L327.32 268.3C329.125 266.798 330.577 264.918 331.574 262.792C332.571 260.667 333.087 258.348 333.087 256C333.087 253.652 332.571 251.333 331.574 249.208C330.577 247.082 329.125 245.202 327.32 243.7L238.23 169.57C235.894 167.627 233.052 166.39 230.039 166.003C227.025 165.616 223.963 166.095 221.211 167.384C218.46 168.673 216.132 170.719 214.501 173.283C212.87 175.846 212.002 178.821 212 181.86V330.14C212.002 333.179 212.87 336.154 214.501 338.717C216.132 341.281 218.46 343.327 221.211 344.616C223.963 345.905 227.025 346.384 230.039 345.997C233.052 345.61 235.894 344.373 238.23 342.43V342.43Z" fill="white"/>
<path d="M448 256C448 150 362 64 256 64C150 64 64 150 64 256C64 362 150 448 256 448C362 448 448 362 448 256Z" stroke="white" stroke-width="32" stroke-miterlimit="10"/>
</svg>
